# xmcd
#
# Track frame offsets:
#  150
#  15309
#  25497
#  39310
#  50474
#  64288
#  77655
#  89886
#  105518
#  117035
#  129437
#  141747
#  152999
#  165228
#  176425
#  188027
#  197905
#  207388
#  218767
#  229871
#  240054
#  251178
#  261750
#  275391
#  287789
#
# Disc length: 3991 seconds
#
# Revision: 0
# Processed by: cddbd v1.5.1PL2 Copyright (c) Steve Scherf et al.
# Submitted via: Collectorz.com_Music_Collector 6.9
#
DISCID=650f9519
DTITLE=Rosalie Allen - Rodalie Allen - The Yodeling Queen
DYEAR=2005
DGENRE=Country and Western
TTITLE0=He Taught Me How To Yodel
TTITLE1=Tennessee Waltz
TTITLE2=Have I Told You Lately That I Love You
TTITLE3=Have You Ever Been Lonely
TTITLE4=Tears On My Pillow
TTITLE5=When My Blue Moon Turns To Gold Again
TTITLE6=Ding Dong Polka
TTITLE7=jealous Heart
TTITLE8=Your Cheatin' Heart
TTITLE9=Columbus Stockade Blues
TTITLE10=My Adobe Hacienda
TTITLE11=I'll Keep Loving You
TTITLE12=Castaway
TTITLE13=My Old Familiar Heartache
TTITLE14=Just A Sailor's Sweetheart
TTITLE15=I Gotta Have You
TTITLE16=I Laughed At Love
TTITLE17=Spanish Polka
TTITLE18=I'd Rather Be A Cowgirl
TTITLE19=Cranberry Kisses And Strawberry Hugs
TTITLE20=Whoa Sailor
TTITLE21=He Lived In Texas She Loved In Arkansas
TTITLE22=Green As Grass
TTITLE23=Hills Of Pride
TTITLE24=I Wanna Sit
EXTD=
EXTT0=
EXTT1=
EXTT2=
EXTT3=
EXTT4=
EXTT5=
EXTT6=
EXTT7=
EXTT8=
EXTT9=
EXTT10=
EXTT11=
EXTT12=
EXTT13=
EXTT14=
EXTT15=
EXTT16=
EXTT17=
EXTT18=
EXTT19=
EXTT20=
EXTT21=
EXTT22=
EXTT23=
EXTT24=
PLAYORDER=
